<?xml version="1.0" encoding="UTF-8"?>
<svg id="_레이어_2" data-name="레이어 2" xmlns="http://www.w3.org/2000/svg" viewBox="0 0 2190.82 1439.18">
  <defs>
    <style>
      .cls-1 {
        stroke-linejoin: bevel;
        stroke-width: 3px;
      }

      .cls-1, .cls-2 {
        fill: #fff;
      }

      .cls-1, .cls-3 {
        stroke: #000;
      }

      .cls-4, .cls-2 {
        stroke-width: 0px;
      }

      .cls-3 {
        fill: none;
        stroke-miterlimit: 10;
        stroke-width: 5.54px;
      }
    </style>
  </defs>
  <g id="_레이어_1-2" data-name="레이어 1">
    <g>
      <polyline class="cls-3" points="597.67 687.29 832.24 1172.06 1776.51 1085.93 1781.04 605.1 1862.78 528.51 1907.59 513.9 1904.11 479.98 1867.55 483.73"/>
      <path class="cls-4" d="M197.58,519.09c105.37,91.51,238.21,249.27,237.85,395.23-.08,10.54-.77,21.08-2.28,31.5,0,0-.99-.12-.99-.12,1.89-20.84,1.25-41.85-1.85-62.52-10.98-72.64-46.17-139.28-87.64-199.05-30.03-42.94-64.02-83-100.48-120.61-14.62-15.03-29.63-29.7-45.26-43.67,0,0,.65-.76.65-.76h0Z"/>
      <g>
        <polygon class="cls-2" points="359.1 896.21 501.98 1143 471.72 1438.84 651.58 1245.53 984.41 1215.95 760.84 1156.44 866.74 960.34 685.2 1040.46 725.54 811.85 594.43 1013.57 359.1 896.21"/>
        <path class="cls-4" d="M362.8,899.69c48.29,80.56,93.86,160.53,139.61,243.06.12-.3-29.36,298.61-31.05,295.75,0,0,177.75-195.26,177.75-195.26,0,0,2.17-1.06,2.17-1.06-.09.27,335.22-28.2,332.99-25.74,0,0-223.56-59.51-223.56-59.51-1.34-.67,105.67-196.15,105.59-196.83,4.01.81-180.6,83.25-179.65,83.65,0,0-4.98-3.91-4.98-3.91l43.38-228.07s.91.36.91.36c-.64.18-130.61,202.49-131.75,201.89-78.6-37.23-154.62-74.44-231.41-114.33h0ZM355.4,892.73c80.09,38.37,160.98,79.35,239.26,120.39-2.74,1.55,131.21-201.65,130.47-201.54,0,0,.91.36.91.36,0,0-37.3,229.14-37.3,229.14l-4.98-3.91s182.79-77.3,182.79-77.3c0,0,.64.7.64.7-.47-.61-105.94,198.79-106.21,195.39,0,0,223.56,59.51,223.56,59.51,1.7,2.67-332.56,32.45-332.65,33.42,0,0,2.17-1.06,2.17-1.06,0,0-181.96,191.35-181.96,191.35-2.64,1.04,30.19-297.03,29.46-295.94-49.53-81.97-99.16-166.56-146.15-250.52h0Z"/>
      </g>
      <path class="cls-4" d="M1579.39,1114.99l-97.59,69.84-1.8-3.38c.54.76,438.63-170.53,437.92-167.27,0,0-436.53,170.86-436.53,170.86,0,0-1.8-3.38-1.8-3.38l99.22-67.5.57.82h0Z"/>
      <g>
        <polygon class="cls-2" points="2001.4 331.92 2190.71 197.57 1955.69 249.01 1870.66 .17 1798.97 276.18 1104.98 386.81 1807.57 345.99 1705.59 501.3 1849.89 399.7 1939.8 615.53 2000.31 402.02 2186.89 402.43 2001.4 331.92"/>
        <path class="cls-4" d="M2000.9,331.98c-.05.95,190.7-137.69,189.91-133.93,0,0-234.2,55.17-234.2,55.17,0,0-5-2.82-5-2.82,0,0-81.43-250.07-81.43-250.07,2.86-2.44-71.18,276.95-71.13,276.34.1-.51-695.94,112.45-694.11,109.65,58.5-4.31,117.01-8.27,175.53-12.16,58.52-3.9,117.05-7.6,175.58-11.3,117.2-5.71,234.02-18.01,351.47-17.37,0,0,.45.78.45.78l-101.98,155.31c-4.88.33,145.16-102.44,143.59-102.28,1.7-.62,89.84,215.7,90.67,216.05,0,0-.94.06-.94.06,8.68-35.97,18.22-71.71,28.01-107.39,9.8-35.26,19.55-71.96,32.5-106.12.58-1,186.3.37,187.06.05,0,0-.18.97-.18.97,0,0-185.8-70.92-185.8-70.92h0ZM2001.9,331.86l185.17,70.11s-.18.97-.18.97c.23-.38-188.52.3-186.09-.77-6.81,35.87-17.95,72.25-28.01,107.39-10.38,35.51-21.01,70.94-32.5,106.12,0,0-.94.06-.94.06,0,0-89.91-215.83-89.91-215.83,3.5-.3-144.33,101.62-143.55,101.82,0,0-.71-.68-.71-.68l101.98-155.31.45.77c-116.59,14.24-234.05,15.55-351.12,23.46-58.57,3.1-117.13,6.2-175.71,9.11-58.58,2.91-117.16,5.76-175.76,8.26,0,0-.11-.99-.11-.99l694-110.64c-.5,1.99,70.31-277.68,72.24-275.68,0,0,88.64,247.61,88.64,247.61,0,0-5-2.82-5-2.82,0,0,235.83-47.73,235.83-47.73,2.73,1.48-189.09,133.88-188.71,134.78h0Z"/>
      </g>
      <path class="cls-4" d="M369.54,384.49c-17.1,65.57-25.12,136.28-10.86,203.08,2.65,12.31,6.43,24.55,10.84,36.37,0,0-.91.41-.91.41-4.52-9.17-8.28-18.73-11.29-28.54-11.74-39.39-12.14-81.29-7.85-121.89,2.26-20.31,5.84-40.47,10.71-60.31,2.47-9.9,5.12-19.76,8.42-29.43,0,0,.95.31.95.31h0Z"/>
      <polygon class="cls-1" points="59.77 782.92 369.06 1191.18 1.5 872.53 12.71 568.12 59.77 782.92"/>
    </g>
  </g>
</svg>