<?xml version="1.0" encoding="UTF-8"?>
<svg id="_레이어_2" data-name="레이어 2" xmlns="http://www.w3.org/2000/svg" viewBox="0 0 884.34 791.95">
  <defs>
    <style>
      .cls-1 {
        fill: none;
        stroke: #000;
        stroke-miterlimit: 10;
        stroke-width: 4px;
      }
    </style>
  </defs>
  <g id="_레이어_1-2" data-name="레이어 1">
    <g>
      <path class="cls-1" d="M83.15,254.03c7.53,8.06,17.82,12.15,26.59,18.42,22.65,16.21,40.14,37.64,58.13,58.44,6.52,7.54,14,13.23,22.74,17.09,13.74,6.07,22.11,17.58,30.51,28.86,26.84,36.05,60.44,63.6,102.49,79.43,31.02,11.68,58.03,28.27,79.71,53.42,6.93,8.04,14.97,15.2,21.28,23.68,8.97,12.06,21.18,10.64,33.89,11.55,13.52.97,22.18-5.28,30.73-13.7,12.54-12.34,26.32-23.64,37.5-37.11,10.26-12.36,23.28-14.17,37.15-14.96,16.99-.97,32.92,2.86,48.16,10.95,13.18,7,25.98,15.63,40.86,18.35,14.5,2.65,29.3,2.27,43.97-.62,3.07-.61,4.43-2.55,6.05-4.31,19.92-21.7,38.26-44.2,40.09-75.63.43-7.39,6.1-12.3,11.04-17.46,13.11-13.68,27.64-25.05,46.09-30.63.72-.22,1.42-1.04,2.04-.95,29.33,4.03,48.29-17.78,71.58-28.74,2.89-1.36,5.48-3.36,8.2-5.07"/>
      <path class="cls-1" d="M876.39,356.47c-5.52,2.3-9.98,6.09-14.25,10.11.43,9.04,3.94,14.64,13.01,18.83,9.13,4.22,7.21,15.85,4.74,22.7-4.61,12.77,0,24.05,1.81,35.75,1.49,9.63.98,14.2-8.44,18.14-13.92,5.83-28.23,10.9-42.69,15.21-6.97,2.08-11.05,6-10.91,12.43.36,17.27-10.93,29.11-18.52,42.7-4,7.16-8.13,14.24-12.18,21.36-1.14,2.01-1.64,4.69.1,5.94,2.4,1.73,2.6,4.58,2.69,6.27.72,13.39,10.71,15.07,20.57,17.32,4.8,1.09,9.59,2.41,14.22,4.08,6.96,2.51,8.99,10.5,2.92,13.9-9.41,5.27-10.09,14.2-11.91,22.67-1.87,8.69-4.59,16.76-13.42,20.12-6.22,2.37-8.07,6.89-9.04,12.39-1.45,8.17-3.21,15.16-14.29,14.48-5.68-.35-10.28,3.22-13.34,8.82-3.81,6.96-8.6,13.32-17.13,15.41-1.83.45-4.09,1.54-5,3.03-8.49,14.07-22.88,14.73-36.72,16.1-13.22,1.3-17.52,4.37-21.35,17.39-.6,2.05-.93,5.56-2.09,5.88-14.44,3.98-19.23,22.79-36.53,22.97-6.24.07-11.5,3.69-12.67,12.78-1.9,14.75-11.12,19.42-25.94,15.23-13.7-3.88-25.08-12.38-36.5-20.42-4.34-3.05-2.96-9.36-3.99-14.1-3.57-16.37-6.83-32.7-6.66-49.78.15-14.16-9.48-17.95-23.06-11.26-7.37,3.63-13.25,9.02-19.26,14.33-1.79,1.58-3.43,3.35-5.09,5.07-3.76,3.88-7.84,4.99-13.27,3.19-5.5-1.83-5.76-5.66-6.14-10.3-.91-11.12-4.6-12.35-15.31-7.43-3.33,1.53-6.33,2.96-9.03,5.37-15.22,13.59-30.49,27.12-45.73,40.69-7.61,6.78-16.89,10.93-25.35,16.37-3.04,1.95-6.03,1.92-9.22,1.92-10.17.02-20.33.1-30.5-.02-9.29-.11-16.29-3.46-19.42-13.16-2.18-6.77-7.05-13.04-14.12-12.78-6.66.24-11.67,4.97-14.58,12.62-4.99,13.13-24.19,19.66-38.36,15.59-5.49-1.57-7.02-6.39-7.69-9.45-3.99-18.19-9.97-35.81-14.66-53.79-1.54-5.88-2.22-12.31-9.06-15.34-4.59-2.03-6.09-7.19-6.9-11.16-3.59-17.6-10.61-33.99-16.41-50.82-.84-2.42.84-5.9-.3-7.99-2.92-5.37-6.14-11.64-13.04-12.09-7.44-.49-12.89,4.33-15.08,11.03-4.89,14.99-16.25,24.79-26.56,35.56-7.39,7.72-14.82,11.78-26.6,8.61-8.45-2.27-18.3-.63-27.26.85-4.33.72-8.6.92-10.99-1.6-3.11-3.27-.92-7.56,1.74-10.98.62-.8.55-2.1,1.08-3,7.85-13.39,11.73-26.62,1.15-40.8-3.62-4.85-1.67-10.82.83-16.16,3.48-7.41,6.9-14.86,10.16-22.37,2.09-4.83,3.45-9.88,3.08-15.24"/>
      <path class="cls-1" d="M515.55,507.86c8.94,10.56,12.37,23.5,15.01,36.56.94,4.66,1.64,9.38,4.37,13.07,8.11,10.99,9.33,23.69,10.03,36.59.75,13.99,9.84,23.41,20.55,28.93,14.28,7.37,19.28,19.03,21.99,32.95,1.84,9.46,5,18.27,10.11,26.58,14.12-2.7,27.95-4.12,38.02-17.17,6.44-8.36,17.72-8.61,28.01-6.31,6.79,1.52,8.55,7.87,8.86,13.14.63,10.39,4.91,17.5,13.27,23.58,4.42,3.22,10.85,5.8,11.35,12.91"/>
      <path class="cls-1" d="M435.26,555.95c0,6.97,3,11.11,10.27,12.45,7.51,1.38,15.72,11.96,14.24,19.4-3.64,18.39-7.74,36.64-5.04,55.59.13.89-.84,1.94-1.43,3.22-20.85,6.2-36.7.37-42.8-22.75-5.9-22.39-9.96-26.05-36.96-27.77-7.19-.46-14.4-.83-21.6-1.01-6.85-.17-13.71-.04-21.08-.04-2,10.92-10.39,15.21-20.09,16.21-8.26.85-13.92,6.93-21.57,8.48"/>
      <path class="cls-1" d="M739.68,420.96c-5.01-2.32-13.27,1.51-15.13-6.2-2.15-8.95-7.95-17.9-1.4-27.69,2.69-4.02,4.29-8.4,3.67-14.29-.91-8.53,1.88-16.78,8.64-23.62,15.38-15.55,20-34.98,17.35-56.17-.7-5.59.93-9.48,4.27-13.34,12.13-14.02,5.6-33.66-12.32-39.79-7.92-2.71-7.81-9.93-9.94-15.58-2.03-5.39,3.16-8.37,6.94-11.14,13.15-9.62,13.01-9.54,9.36-25.66-.63-2.77-2.23-5.79-1.97-8.13,1.75-15.78-7.96-19.77-20.67-22.76-16.71-3.94-17.04-6.13-16.63-23.34.29-12.15.71-22.88,11.02-32.22,4.94-4.47,1.37-13.94-.63-21-.32-1.13-1.12-2.29-2.03-3.05-11.81-9.91-8.99-20.3-2.2-31.88,6.03-10.3,3.21-15.99-8.03-18.2-7.7-1.51-13.06-6.82-19.3-10.58-3.89-2.34-7.91-5.09-11.23-8.15-6.68-6.15-13.14-4.32-18.43.35-8.38,7.41-18.67,11.32-27.69,17.39-3.09,2.08-5.64,2.5-8.26.79-10.03-6.57-21.85-5.72-32.87-7.79-5.29-.99-8.09-2.31-9.2-7.49-1.51-7.05-5.87-10.09-13.27-9.31-6.82.71-13.61-.02-20.54,1.89-10.47,2.88-14.83,6.55-15.21,17.65-.46,13.35-3.44,23.24-19.45,26.06-10.38,1.83-16.69,9.72-17.91,22.02-1.11,11.22-7.01,21.68-14.04,30.66-11.18,14.29-6.64,30.66-6.64,46.17,0,8.46.69,17.09.46,25.59-.26,9.6-10.18,18.85-20.32,19.34-7.15.34-14.28,2.45-22.26.47.59-5.5,1.29-11.1,1.77-16.73,1.12-13.15.44-25.06-13.14-33.02-8.67-5.08-15.76-12.82-23.76-19.12-2.27-1.79-5.22-2.71-7.69-3.95-1.57,1.73-2.78,2.67-3.48,3.89-6.57,11.56-16.35,17.21-29.73,16.37-1.02-.06-2.65-.43-2.98.05-7.4,10.6-18.56,7.81-28.76,8.08-10.09.27-10.61,1.15-11.37,11.3-1.46,19.5-.53,39.66-6.52,58.21-6.42,19.89-3.9,39.68-4.49,59.54-.32,10.94-3.05,20.2-10.19,28.83-5.89,7.12-12.87,7.7-20.66,6.78-1.21-.14-2.74-.52-4.12-.82-11.49-2.47-20.11-.89-24.9,12.18-3.75,10.22-12.51,14.68-24.24,14.8-9.69.1-17.95,5.51-23.55,13.99"/>
      <path class="cls-1" d="M873.88,360.63c-12.96,1.82-22.56,10.45-33.21,16.78-8.83,5.25-17.58,8.57-28.17,8.36-27.47-.53-56.45,21.75-59.7,48.79-1.92,16.02-9.27,28.15-17.48,40.36-6.86,10.2-14.87,19.72-22.39,29.49-8.12,10.56-18.95,12.94-30.48,14.17-10.67,1.14-21.72,1.47-32.18.57-9.96-.86-19.72-6.47-29.12-10.94-11.77-5.59-22.5-12.99-35.34-16.81-14.02-4.17-27.77-5.06-41.65-1.59-7.08,1.77-12.52,6.97-17.82,12.2-15.35,15.17-30.81,30.26-46.82,44.71-12.44,11.23-28.42,10.16-43.58,9.25-14.07-.85-24.24-9.99-32.09-20.71-10.01-13.67-23.82-16.88-38.59-14.06-14.4,2.74-23.21-4.26-29.91-14.12-5.59-8.22-9.42-18.14-6.57-28.91"/>
      <path class="cls-1" d="M444.34,196.07c13.33,21.61,16.53,46.9,25.11,70.24,3.25,8.85-1.59,17.31-8.93,23.15-3.87,3.08-8,5.89-6.88,11.26,1.27,6.1,7.23,7.05,12.08,8.03,12.17,2.46,25.03,3.4,32.41,15.43,3.55,5.79,6.91,11.9,9.08,18.29,4.24,12.52,12.48,18.47,25.56,18.3,3.38-.04,6.77.62,10.16.96"/>
      <path class="cls-1" d="M632.92,521.4c0,6.58.46,13.21-.08,19.75-2.56,31.28,13.74,42.11,37.55,51.87,5.23,2.15,11.07,2.77,16.58,4.3,8.09,2.24,17.76,2.24,19.83,13.47.15.79,1.21,1.56,2.02,2.07,15.04,9.45,22.15,23.47,26.41,40.46,2.91,11.6,11.4,21.28,18.28,31.3"/>
      <path class="cls-1" d="M238.76,426.11c-4.09,4.85-3.59,9.28-.16,14.64,4.15,6.48,7.15,13.71,10.54,20.67,6.94,14.25,5.6,23.55-7.53,31.75-5.68,3.55-5.75,6.91-6.01,11.85-.48,9,1.23,18.04-.9,27.02-.77,3.23.58,5.79,4.05,7.31,14.41,6.29,19.14,18.33,22.37,33.06,2.66,12.14,5.57,23.85,6.12,36.45.41,9.27-3.55,12.18-10.79,14.63-11.59,3.93-23.71.36-35.33,3.04"/>
      <path class="cls-1" d="M59.03,262.8c22.37,9.63,40.61,24.28,56.81,42.62,13.5,15.28,25.36,32.46,42.61,44.18,7.52,5.11,15.73,9.27,22.87,14.84,6.68,5.21,12.59,11.57,15.76,19.75,1.54,3.97,4.64,6.48,7.37,9.4,27.62,29.49,57.89,55.22,96.17,70.31,8.42,3.32,17.7,6.36,23.24,14.86.76,1.16,2.95,1.75,5.09,1.78,15.19.18,46.09,23.42,50.17,37.56.37,1.29.05,2.78.05,4.17"/>
      <path class="cls-1" d="M620.24,30.04c2.28,12.27-1.61,24.05-5.6,34.9-5.61,15.26-4.74,29.68,1.78,43.32,6.71,14.04,2.08,27.63,1.63,41.39-.44,13.34-5.17,26.11-6.71,39.23-1.05,8.93-4.65,12.99-12.76,14.39"/>
      <path class="cls-1" d="M482.31,182.14c8.97,10.91,22.77,14.83,33.85,22.78,13.62,9.77,23.05,20.3,26.19,37.01,2.37,12.59,9.42,16.63,22.09,15.26.33-.04.68-.04,1.01,0,29.05,4.02,44.14-12.89,54.76-36.51"/>
      <path class="cls-1" d="M232.9,439.56c-4.08,2.91-8.18-.2-12.25-.22-12.53-.08-16.2,2.51-17.26,15.55-.65,7.97-2.49,15.8-6.48,22.29-5.95,9.69-15.36,14.69-27.31,13.44-11.45-1.2-19.71-6.76-24.52-17.36-2.95-6.52-5.98-13.01-9.2-19.39-5.98-11.86-15.38-12.65-23.42-2.03-.9,1.19-1.39,2.7-2.07,4.06"/>
      <path class="cls-1" d="M511.34,45.53c7.12,15.55,3.62,32.05,4.02,48.15.23,9.4-1.34,18.83-1.83,28.26-.11,2.03-1.23,4.49.96,6.28,9.25,7.55,15.37,18.34,28.15,22.33,13.34,4.17,19.9,17.61,29.15,27.12,7.52,7.73,13,17.5,21.16,24.9,1.49,1.35,2.57,2.88,3.38,5.12,5.63,15.48,16.69,27.64,25.96,40.9,4.59,6.57,12.25,6.82,18.78,9.58,7.09,3,12.8,1.88,18.96-2.18,16.14-10.65,34.66-12.73,53.34-13.57,4.25-.19,7.89-1.41,11.51-3.25"/>
      <path class="cls-1" d="M66.47,274.44c-11.47,9.57-4.51,21.76-3.6,32.47.72,8.48-.53,15.47-6.71,20.16-9.9,7.49-11.3,17.8-11.98,28.66-.32,5.24-1.38,9.47-7.16,11.21-14.03,4.22-21.22,14.05-22.32,28.41-.69,8.92-7.05,14.22-12.42,19.44,1.93,6.28,3.6,11.7,5.27,17.13,1.27,4.14,2.89,7.03,8.05,8.43,7.26,1.97,13.92,5.93,21.3,8.2,4.62,1.42,10,3.97,11.57,10.73,1.26,5.44,6.43,9.54,7.85,15.3"/>
      <path class="cls-1" d="M257.74,312.11c2,8.87,9.5,13.87,15.76,18.33,22.94,16.35,41.99,36.73,61.96,56.21,7.34,7.16,15.3,13.7,22.69,20.82,3.76,3.62,8.18,2.49,12.48,3.13,15.37,2.3,30.89,9.29,44.88-3.25,1.19,3.58,1.6,6.19,2.84,8.31,11.48,19.68,1.22,35.34-9.45,50.75-6.71,9.68-15.39,17.7-23.76,25.94"/>
      <path class="cls-1" d="M242.78,538.11c-1.38,2.76-3.07,5.42-4.09,8.31-3.22,9.08-11.33,9.89-18.72,10.07-6.9.17-13.69-1.3-17.95-8.86-1.84-3.27-.6-10.08-7.96-9.62-7.81.49-15.8-.98-21.83,6.27-6.35,7.63-14.81,12.64-24.74,10.15-10.14-2.55-17.21-12.58-29.09-12.47-4.22.04-1.45-5.34-.8-6.85,10.65-24.49,6.1-49.69,3.73-74.71-.61-6.42-4.53-10.98-12.27-10.48-3.76.24-7.59-.6-11.39-.93-8.58-.74-16.33.26-21.88,8.21-2.39,3.43-5.52,6.74-10.25,7.34"/>
      <path class="cls-1" d="M427.35,190.35c-5.76,6.78-12.22,13.1-17.07,20.48-4.04,6.15-6.45,13.23-6.5,21.21-.08,16.27-1.05,32.54-1.94,48.8-.22,4.04.77,7.31,4.19,9.09,13.16,6.85,11.75,19.04,11,30.56-.68,10.44-4.76,20.38-7.51,30.36-2,7.27.13,11.61,3.66,16.37,4.87,6.58,10.36,12.67,17.22,17.33"/>
      <path class="cls-1" d="M662.89,409.72c-12.34-4.8-24.59-9.84-37.06-14.28-5.47-1.95-10.6-4.36-13.13-9.47-1.87-3.79-2.05-9.3-7.38-8.94-7.21.48-14.66-4.49-21.61.82-7.9,6.03-15.96,6.27-23.49-.19-1.52-1.31-2.71-2.03-4.27-1.81-16.04,2.23-32.38-.11-48.38,3.87-10.26,2.55-20.9,3.56-29.87-4.85-1.96-1.84-4.68-2.9-8.19-1.26-16.66,7.79-35.74,11.36-47.24,27.89"/>
      <path class="cls-1" d="M397.21,272.8c-11.33.44-18.46,6.84-22.75,16.68-1.37,3.14-2.34,6.63-5.36,8.17-9.97,5.05-18.17,11.7-25.17,20.67-5.1,6.53-14.33,3.14-21.59,4.08-15.02,1.93-21.29,6.21-25.97,21.07-.46,1.46-1.35,2.78-2.05,4.17"/>
      <path class="cls-1" d="M651.32,281.23c-10.19,2.92-20.64,4.7-30.88,7.68-11.15,3.25-19.36,9.75-25.05,18.2-6.01,8.94-12.49,16.15-21.86,21.35-8.75,4.85-17.04,10.75-19.44,21.41-1.2,5.33-6.42,7.6-7.96,13.42,4.18,5,.33,11.15-.32,17.3"/>
      <path class="cls-1" d="M356.82,521.96c-11.82,16.33-17.05,35.15-20.61,54.6-1.58,8.62-5.99,12.86-15.36,14.85-13.33,2.84-21.17,8.65-19.67,27.39"/>
      <path class="cls-1" d="M660.37,252.25c-.31,29.8,4.66,59.11,7.92,88.59,1.24,11.23,1.36,22.56,4.22,33.59.32,1.25.1,2.63-.85,4.11-12.1,18.94-14.07,41.43-21.45,62.05-.22.6.25,1.53-.07,2-10.58,15.9-16.49,33.7-21.34,51.95"/>
      <path class="cls-1" d="M515.5,441.31c-9.86-4.24-19.63-8.62-30.87-7.33-1.95.22-5.09-.61-6-2.03-6.45-10.1-16.48-8.31-25.87-8.04-11.32.32-22.63,1.28-33.94,1.97"/>
      <path class="cls-1" d="M745.1,460.81c13.88,7.77,15.72,11.19,10.16,27.03-2.59,7.39-3.94,12.55,3.13,18.17,2.13,1.69,4.31,5.42,5.77,8.93,2.86,6.89,7.83,11.65,16.35,12.99,6.2.98,11.88,5.21,17.79,7.99"/>
      <path class="cls-1" d="M551.97,381.56c-1.68,3.37-1.25,7.02-.97,10.5.57,7.05-2.07,13.51-5.63,18.71-4.58,6.68-11.43,11.69-15.57,19.05-3.47,6.16-6.26,12.83-11.01,17.54,3.4,11.48,6.74,22.73,10.07,33.99"/>
      <path class="cls-1" d="M720.9,371.12c-14.49.95-27.53,8.53-42.06,9.17-2.37.1-4.78-.62-7.18-.96"/>
      <path class="cls-1" d="M454,647.66c3.44,17.14,13.09,31.52,20.79,46.77"/>
      <path class="cls-1" d="M268.4,613.65c6.64,3.3,11.24,11.73,20.59,8.24"/>
    </g>
  </g>
</svg>